# xmcd CD database file
#
# Track frame offsets:
#	150
#	15998
#	31768
#	47519
#	66157
#	82026
#	98376
#	117019
#	132577
#	148210
#	166251
#	181256
#
# Disc length: 2648 seconds
#
# Revision: 2
# Processed by: cddbd v1.4b41PL1 Copyright (c) Steve Scherf et al.
# Submitted via: Feurio! 1.50.2ß - http://www.feurio.com
#
DISCID=920a560c
DTITLE=Various Artist - Mc Donalds POP Songs CD2
DYEAR=1900
DGENRE=
TTITLE0=Xavier Naidoo - 20.000 Meilen
TTITLE1=Tania Evans - Prisoner of love
TTITLE2=The Weather Girls - It´s raining men
TTITLE3=K.C. and The Sunshine Band - Give it up
TTITLE4=The Jacksons - Blame it on the boogie
TTITLE5=Evelyn Thomas - High energy
TTITLE6=Run DMC vs. Jason Nevins - It´s like that
TTITLE7=Shannon - Let the music play
TTITLE8=Destiny´s Child featuring Wyclef Jean - No no no
TTITLE9=Franka Potente and Thomas D. - Wish
TTITLE10=Bangles - Walk like an Egyptian
TTITLE11=Mc Donalds - Sie ist weg - Die Fantastischen Vier
EXTD=
EXTT0=
EXTT1=
EXTT2=
EXTT3=
EXTT4=
EXTT5=
EXTT6=
EXTT7=
EXTT8=
EXTT9=
EXTT10=
EXTT11=
PLAYORDER=
